<svg width="32" height="38" viewBox="0 0 32 38" fill="none" xmlns="http://www.w3.org/2000/svg">
<path d="M15.9808 6.58333V1.23583C15.9808 0.373333 14.9458 -0.0483334 14.3516 0.565L7.08747 7.82917C6.70414 8.2125 6.70414 8.80667 7.08747 9.19L14.3516 16.4542C14.9458 17.0483 15.9808 16.6267 15.9808 15.7833V10.4167C23.13 10.4167 28.7841 16.9717 27.2125 24.3892C26.3116 28.74 22.785 32.2475 18.4533 33.1483C11.6108 34.5858 5.51581 29.89 4.59581 23.5458C4.48081 22.6258 3.67581 21.9167 2.71747 21.9167C1.56747 21.9167 0.647474 22.9325 0.800807 24.0825C1.98914 32.4967 10.0008 38.7258 19.0666 36.9625C25.0466 35.7933 29.8575 30.9825 31.0266 25.0025C32.9241 15.17 25.4683 6.58333 15.9808 6.58333ZM13.8725 27.6667H12.2433V21.4183L10.3075 22.0125V20.69L13.7 19.4825H13.8725V27.6667ZM22.0758 24.2933C22.0758 24.9067 22.0183 25.4433 21.8841 25.865C21.75 26.2867 21.5583 26.67 21.3283 26.9575C21.0983 27.245 20.7916 27.4558 20.4658 27.59C20.14 27.7242 19.7566 27.7817 19.335 27.7817C18.9133 27.7817 18.5491 27.7242 18.2041 27.59C17.8591 27.4558 17.5716 27.245 17.3225 26.9575C17.0733 26.67 16.8816 26.3058 16.7475 25.865C16.6133 25.4242 16.5366 24.9067 16.5366 24.2933V22.875C16.5366 22.2617 16.5941 21.725 16.7283 21.3033C16.8625 20.8817 17.0541 20.4983 17.2841 20.2108C17.5141 19.9233 17.8208 19.7125 18.1466 19.5783C18.4725 19.4442 18.8558 19.3867 19.2775 19.3867C19.6991 19.3867 20.0633 19.4442 20.4083 19.5783C20.7533 19.7125 21.0408 19.9233 21.29 20.2108C21.5391 20.4983 21.7308 20.8625 21.865 21.3033C21.9991 21.7442 22.0758 22.2617 22.0758 22.875V24.2933ZM20.4466 22.645C20.4466 22.2808 20.4275 21.9742 20.37 21.725C20.3125 21.4758 20.2358 21.2842 20.14 21.1308C20.0441 20.9775 19.9291 20.8625 19.7758 20.805C19.6225 20.7475 19.4691 20.7092 19.2966 20.7092C19.1241 20.7092 18.9516 20.7475 18.8175 20.805C18.6833 20.8625 18.5491 20.9775 18.4533 21.1308C18.3575 21.2842 18.2808 21.4758 18.2233 21.725C18.1658 21.9742 18.1466 22.2808 18.1466 22.645V24.5042C18.1466 24.8683 18.1658 25.175 18.2233 25.4242C18.2808 25.6733 18.3575 25.8842 18.4533 26.0375C18.5491 26.1908 18.6641 26.3058 18.8175 26.3633C18.9708 26.4208 19.1241 26.4592 19.2966 26.4592C19.4691 26.4592 19.6416 26.4208 19.7758 26.3633C19.91 26.3058 20.0441 26.1908 20.14 26.0375C20.2358 25.8842 20.3125 25.6733 20.3508 25.4242C20.3891 25.175 20.4275 24.8683 20.4275 24.5042V22.645H20.4466Z" fill="#323232"/>
</svg>
