<svg width="60" height="55" viewBox="0 0 60 55" fill="none" xmlns="http://www.w3.org/2000/svg">
<path d="M26.7891 50.2066L26.7877 50.2053C19.1549 43.2926 12.9004 37.6272 8.5421 32.3055C4.19522 26.9978 1.83945 22.1542 1.83945 16.9026C1.83945 8.36199 8.54495 1.66315 17.0995 1.66315C21.9413 1.66315 26.6035 3.91911 29.6422 7.48296L30.4032 8.37542L31.1641 7.48296C34.2028 3.91911 38.865 1.66315 43.7068 1.66315C52.2613 1.66315 58.9669 8.36199 58.9669 16.9026C58.9669 22.1542 56.6111 26.9978 52.264 32.3095C47.9176 37.6202 41.6857 43.2762 34.0817 50.1775L34.02 50.2335L34.0178 50.2355L30.4057 53.4947L26.7891 50.2066Z" fill="#E5343C" stroke="#D13842" stroke-width="2"/>
</svg>
