<svg width="323" height="812" viewBox="0 0 323 812" fill="none" xmlns="http://www.w3.org/2000/svg">
<g opacity="0.2">
<path d="M112.928 556.888C109.618 562.949 108.984 570.105 109.108 577.009C109.66 607.798 124.691 638.021 148.907 657.041C156.21 662.776 167.055 667.422 174.198 661.489C177.283 658.926 178.782 654.964 179.995 651.141C186.472 630.741 188.374 608.404 182.067 587.95C174.908 564.734 133.75 518.765 112.928 556.888Z" fill="#50A6AA"/>
<path d="M40.6197 766.204C55.8024 751.063 76.0544 739.775 97.4957 739.943C102.113 739.979 106.993 740.648 110.612 743.516C116.724 748.36 117.048 757.355 116.844 765.15C116.718 769.96 116.568 774.891 114.754 779.347C109.538 792.166 93.6224 795.895 82.0464 803.482C66.353 813.767 58.1037 832.142 52.473 850.04C50.0504 857.743 47.8757 865.719 43.1957 872.3C38.517 878.88 30.6224 883.883 22.649 882.608C16.0024 881.546 10.6077 876.324 7.61435 870.295C4.62102 864.267 3.65169 857.464 2.82235 850.786C1.99835 844.144 1.31302 837.4 1.96769 830.712C2.43835 825.904 3.49036 820.264 5.59969 815.852C8.32102 810.158 11.9677 804.732 15.2917 799.374C18.7624 793.779 22.3904 788.279 26.3037 782.983C30.6757 777.066 35.4077 771.403 40.6197 766.204Z" fill="#FEC76F"/>
<path d="M8.35708 86.0995C9.27174 80.1315 11.4037 73.8795 14.3797 68.6408C18.6131 61.1835 24.9637 56.4595 33.0504 53.9742C41.4691 52.1115 51.1571 55.4515 55.5784 62.8542C58.9504 68.5008 58.9864 75.4488 60.5771 81.8288C63.5477 93.7475 71.9251 103.534 80.7491 112.078C89.5744 120.621 99.2277 128.554 105.957 138.829C112.686 149.105 116.096 162.561 111.078 173.772C108.372 179.818 103.477 184.656 98.0677 188.48C94.1251 191.266 89.7504 193.629 84.9811 194.377C73.0611 196.248 61.8597 187.674 54.9371 177.793C48.0131 167.91 43.6597 156.3 35.9024 147.058C31.3064 141.584 25.5824 137.062 19.1917 133.858C13.8757 131.194 11.7051 124.53 9.51708 119C5.33174 108.417 6.63174 97.3488 8.35708 86.0995Z" fill="#F1A7A6"/>
<path d="M114.218 390.66C101.35 386.096 86.8138 390.353 73.6218 386.831C58.8685 382.891 46.8871 369.537 31.6178 369.711C20.9898 369.832 11.2818 376.997 6.05379 386.251C0.825786 395.504 -0.460884 406.525 0.133782 417.137C0.571115 424.939 2.02179 432.839 5.78979 439.684C11.2698 449.64 21.2685 456.532 31.9925 460.292C42.7165 464.053 54.2111 464.984 65.5685 465.388C80.4751 465.916 95.9725 465.46 109.378 458.919C114.94 456.204 119.938 452.268 123.867 447.484C127.783 442.716 130.038 437.064 132.584 431.508C134.474 427.385 135.599 423.552 135.008 418.981C134.25 413.093 132.336 407.281 128.986 402.355C125.398 397.077 120.263 392.804 114.218 390.66Z" fill="#FEC76F"/>
<path d="M305.426 455.169C303.367 465.113 303.272 475.382 301.262 485.337C299.25 495.292 294.892 505.385 286.514 511.124C275.48 518.684 259.764 516.552 248.971 508.653C238.178 500.753 231.668 488.201 227.803 475.397C225.066 466.329 223.451 456.889 219.752 448.168C216.862 441.35 212.731 435.058 210.46 428.009C205.691 413.205 210.327 397.152 219.235 384.894C230.134 369.898 246.639 361.978 264.188 357.394C276.383 354.209 291.236 350.598 303.184 356.558C315.872 362.886 322.384 379.612 322.576 393.024C322.854 412.468 312.644 429.672 307.286 447.83C306.571 450.252 305.938 452.697 305.426 455.169Z" fill="#50A6AA"/>
<path d="M314.482 686.228C309.189 702 305.202 719.229 310.181 735.103C312.901 743.773 318.264 752.651 315.469 761.299C312.632 770.08 302.782 774.151 294.049 777.136C290.942 778.199 287.641 779.275 284.433 778.573C280.453 777.703 277.53 774.275 275.606 770.684C260.786 743.031 289.66 706.356 274.761 678.745C268.41 666.975 255.717 660.407 245.188 652.161C234.658 643.915 225.237 630.652 229.604 618.011C236.761 597.296 269.453 596.955 286.637 601.588C303.058 606.016 312.801 624.011 318.825 638.745C325.426 654.896 319.718 670.627 314.482 686.228Z" fill="#FEEEEC"/>
<path d="M227.386 168.453C195.711 169.465 165.367 189.392 151.852 218.056C147.18 227.963 144.535 239.996 149.746 249.631C154.31 258.067 164.191 263.275 166.796 272.504C169.458 281.928 163.531 291.329 159.29 300.155C155.047 308.98 153.174 321.369 161.156 327.04C166.854 331.087 174.703 329.437 181.296 327.121C216.414 314.783 245.991 287.477 261.094 253.457C267.683 238.613 271.508 221.915 269.51 205.645C267.915 192.673 264.286 184.419 253.9 176.591C245.743 170.441 237.624 168.127 227.386 168.453Z" fill="#FEC76F"/>
<path d="M201.917 894.069C206.96 905.537 214.822 916.489 226.3 921.509C237.777 926.529 253.234 923.697 259.529 912.867C263.78 905.552 263.174 896.376 261.057 888.187C258.858 879.683 255.204 871.637 251.566 863.643L231.028 818.487C226.238 807.96 220.872 796.775 210.865 790.977C193.366 780.837 172.306 792.679 169.181 811.735C167.992 818.979 168.629 825.245 172.754 831.397C177.986 839.2 183.856 846.156 187.79 854.812C193.557 867.503 196.308 881.315 201.917 894.069Z" fill="#50A6AA"/>
<path d="M119.398 3.06635C118.017 -4.78965 118.441 -13.2683 122.412 -20.187C128.186 -30.2496 139.946 -34.9483 150.838 -38.939C170.793 -46.2523 190.746 -53.5643 210.701 -60.8763C219.516 -64.107 229.108 -67.371 238.089 -64.6363C245.166 -62.4803 250.708 -56.8403 254.656 -50.583C259.176 -43.4163 262.034 -34.8283 260.701 -26.4603C258.55 -12.967 246.552 -3.56298 235.368 4.28769C217.718 16.6757 200.022 29.157 182.172 41.229C168.329 50.5904 150.29 45.1517 138.05 35.1704C128.248 27.177 121.585 15.4997 119.398 3.06635Z" fill="#E5343C"/>
</g>
</svg>
