<svg width="142" height="59" viewBox="0 0 142 59" fill="none" xmlns="http://www.w3.org/2000/svg">
<path d="M8.40645 51.4355C6.51242 51.4355 5.02391 50.8362 3.93996 49.6376C2.85614 48.4387 2.31431 46.7285 2.31431 44.5055V35.6276H0.893745C0.644489 35.6276 0.438979 35.5469 0.277076 35.3842C0.11475 35.2222 0.0341492 35.0162 0.0341492 34.7661V33.9419C0.0341492 33.3677 0.3204 33.0804 0.893745 33.0804H1.60396C2.74994 33.0804 3.73445 32.7376 4.55663 32.0503C5.37895 31.3637 5.91445 30.4459 6.16371 29.2969C6.2882 28.648 6.62467 28.3231 7.17283 28.3231H8.03257C8.70536 28.3231 9.04183 28.648 9.04183 29.2969V33.0804H12.8914C13.1402 33.0804 13.3457 33.1618 13.508 33.3239C13.6698 33.4866 13.751 33.6926 13.751 33.9419V34.7661C13.751 35.0162 13.6698 35.2222 13.508 35.3842C13.3457 35.5469 13.1402 35.6276 12.8914 35.6276H9.04183V44.6181C9.04183 45.2425 9.20345 45.7359 9.52754 46.0978C9.85121 46.4598 10.2499 46.6408 10.7237 46.6408C11.7948 46.6408 12.6171 46.1791 13.1904 45.2549C13.3644 45.0301 13.5642 44.8989 13.7884 44.8614C14.0127 44.8242 14.2053 44.868 14.3676 44.9926C14.5295 45.1178 14.6107 45.2922 14.6107 45.5169C14.6107 47.0903 14.0559 48.4705 12.9475 49.6564C11.8385 50.8426 10.3248 51.4355 8.40645 51.4355Z" fill="#E5343C"/>
<path d="M41.3608 32.7058C42.6316 32.7058 43.6222 33.1929 44.3322 34.1667C45.0424 35.1408 45.3974 36.5771 45.3974 38.4747C45.3974 42.4454 44.5127 45.5982 42.7438 47.9331C40.9743 50.2686 38.6821 51.4355 35.8668 51.4355C33.4244 51.4355 31.6679 50.4616 30.5968 48.5137C29.2512 50.4616 27.2576 51.4355 24.6166 51.4355C23.7944 51.4355 23.0218 51.3166 22.2993 51.0797C21.5765 50.8425 20.8605 50.4428 20.1503 49.881C19.4402 49.319 18.8794 48.4762 18.4684 47.3526C18.0572 46.2287 17.8517 44.8801 17.8517 43.3069V37.8004C17.8517 37.1511 17.6023 36.5267 17.1042 35.9273C16.6054 35.328 16.3566 34.9036 16.3566 34.6537V34.504C16.3566 34.3043 16.4314 34.117 16.5809 33.9419C16.7306 33.7675 16.9295 33.6674 17.1789 33.6424L22.7479 32.893C23.9438 32.7433 24.5418 33.1056 24.5418 33.9794L24.3924 46.0415C24.3674 46.916 24.5167 47.6211 24.841 48.1578C25.1645 48.6951 25.6007 48.9633 26.1492 48.9633C27.2202 48.9633 28.0487 48.2017 28.6345 46.6783C29.2196 45.1553 29.513 43.4941 29.513 41.6959V37.8004C29.513 37.1511 29.2636 36.5267 28.7652 35.9273C28.2667 35.328 28.0179 34.9036 28.0179 34.6537V34.504C28.0179 34.0045 28.3041 33.7172 28.8775 33.6424L33.9978 32.8555C35.1688 32.6561 35.7545 33.0306 35.7545 33.9794L35.6425 45.8916C35.5922 47.9395 36.178 48.9633 37.399 48.9633C38.6197 48.9633 39.7163 48.1578 40.6883 46.547C41.6599 44.9363 42.1458 43.3069 42.1458 41.6587C42.1458 40.9599 41.9524 40.3418 41.5663 39.8042C41.1798 39.2675 40.7628 38.8491 40.3143 38.5494C39.866 38.2498 39.4483 37.8191 39.0622 37.2573C38.6757 36.6952 38.483 36.0525 38.483 35.328C38.483 34.5542 38.7446 33.9231 39.2677 33.4363C39.7911 32.9492 40.4885 32.7058 41.3608 32.7058Z" fill="#E5343C"/>
<path d="M58.81 49.6001C60.4044 49.6001 61.2021 48.0641 61.2021 44.9926C61.2021 43.8687 61.0461 42.533 60.7348 40.9844C60.4231 39.4363 59.8997 37.9755 59.1651 36.6018C58.4299 35.2285 57.6141 34.5412 56.7169 34.5412C55.8446 34.5412 55.2219 34.9287 54.8482 35.7026C54.4744 36.477 54.2876 37.6506 54.2876 39.2237C54.2876 40.0479 54.3868 41.0219 54.5865 42.1455C54.7857 43.2694 55.0596 44.3996 55.4087 45.5356C55.7574 46.6725 56.2371 47.6334 56.848 48.4202C57.4581 49.2067 58.1121 49.6001 58.81 49.6001ZM58.0252 51.4355C55.1344 51.4355 52.6865 50.5429 50.6809 48.7573C48.6749 46.9719 47.6721 44.7304 47.6721 42.0333C47.6721 39.3362 48.6685 37.1073 50.6622 35.3469C52.6554 33.5862 55.0222 32.7058 57.7634 32.7058C60.6041 32.7058 63.0206 33.5925 65.0145 35.3654C67.0076 37.1389 68.0046 39.3864 68.0046 42.108C68.0046 44.8054 67.0326 47.0341 65.0891 48.7948C63.1456 50.5552 60.7909 51.4355 58.0252 51.4355Z" fill="#E5343C"/>
<path d="M81.3045 49.6001C83.1979 49.6001 84.1452 48.0266 84.1452 44.8801C84.1452 43.3816 84.0267 41.8835 83.7899 40.3851C83.5531 38.8867 83.1295 37.538 82.5192 36.3394C81.9083 35.1408 81.1796 34.5412 80.3328 34.5412C79.66 34.5412 79.1182 34.8164 78.7069 35.3653C78.2957 35.915 78.0902 36.6268 78.0902 37.5005V44.2808C78.0902 45.8296 78.4138 47.1032 79.0621 48.1016C79.7096 49.1009 80.4573 49.6001 81.3045 49.6001ZM81.9025 32.7058C84.2198 32.7058 86.2691 33.4989 88.0509 35.0845C89.8321 36.6707 90.7231 38.8996 90.7231 41.771C90.7231 44.6431 89.8572 46.9719 88.1258 48.7573C86.3935 50.5429 84.3191 51.4355 81.9025 51.4355C80.3825 51.4355 79.1116 51.0734 78.0902 50.3491V54.8819C78.0902 55.5057 78.3706 56.1238 78.9311 56.736C79.492 57.3477 79.772 57.8037 79.772 58.1034V58.2533C79.772 58.7274 79.4732 58.9648 78.8753 58.9648H70.9514C70.3535 58.9648 70.0547 58.7274 70.0547 58.2533V58.1034C70.0547 57.8037 70.3034 57.3477 70.802 56.736C71.3001 56.1238 71.5497 55.5057 71.5497 54.8819V39.5235C71.5497 38.9493 71.2506 38.406 70.6526 37.8938C70.0547 37.3825 69.7555 36.9638 69.7555 36.639V36.4517C69.7555 36.0526 70.0417 35.6902 70.6152 35.3653L75.5486 32.9306C76.0965 32.7058 76.4955 32.6683 76.7448 32.8183C76.9936 32.9681 77.1185 33.2554 77.1185 33.6797V34.766C78.0902 33.393 79.6847 32.7058 81.9025 32.7058Z" fill="#F1A7A6"/>
<path d="M92.7089 51.061C92.1354 51.061 91.8493 50.824 91.8493 50.3492V50.1994C91.8493 49.8999 92.0923 49.4445 92.5783 48.8322C93.064 48.2205 93.3069 47.6025 93.3069 46.9778V29.859C93.3069 29.2098 93.064 28.5795 92.5783 27.9672C92.0923 27.3555 91.8493 26.9248 91.8493 26.6749V26.5249C91.8493 26.2504 92.1233 25.9631 92.6715 25.6635L98.3153 22.8915C98.8385 22.6667 99.2555 22.6479 99.5675 22.8353C99.8787 23.0225 100.035 23.3036 100.035 23.6781V46.9778C100.035 47.6025 100.309 48.2205 100.857 48.8322C101.405 49.4445 101.679 49.8999 101.679 50.1994V50.3492C101.679 50.824 101.38 51.061 100.782 51.061H92.7089Z" fill="#F1A7A6"/>
<path d="M121.905 46.9405C121.905 47.6145 121.986 48.1267 122.148 48.4762C122.31 48.8261 122.496 49.0195 122.709 49.057C122.92 49.0942 123.107 49.188 123.269 49.3377C123.431 49.4876 123.512 49.7253 123.512 50.0495C123.512 50.5242 123.195 50.849 122.559 51.0234C121.924 51.1978 120.958 51.2858 119.662 51.2858C118.491 51.2858 117.638 51.1231 117.102 50.7987C116.566 50.4746 116.249 49.9125 116.149 49.113C115.152 50.6618 113.396 51.4355 110.879 51.4355C108.886 51.4355 107.222 50.7799 105.89 49.469C104.556 48.1578 103.89 46.3539 103.89 44.0559V37.8002C103.89 37.151 103.641 36.5266 103.142 35.9273C102.644 35.328 102.395 34.9035 102.395 34.6537V34.504C102.395 34.0045 102.681 33.7172 103.254 33.6423L108.824 32.893C109.995 32.7433 110.58 32.9931 110.58 33.6423L110.468 44.7302C110.443 46.2287 110.624 47.3091 111.01 47.9706C111.396 48.6325 112.013 48.9633 112.86 48.9633C113.558 48.9633 114.143 48.6201 114.617 47.9331C115.09 47.2466 115.327 46.3409 115.327 45.2173V37.8002C115.327 37.151 115.078 36.5266 114.579 35.9273C114.081 35.328 113.832 34.9035 113.832 34.6537V34.504C113.832 34.0045 114.118 33.7172 114.692 33.6423L120.261 32.893C121.357 32.7433 121.905 32.9931 121.905 33.6423V46.9405Z" fill="#F1A7A6"/>
<path d="M133.748 51.398C131.356 51.398 129.387 50.9926 127.842 50.1807C126.297 49.3695 125.525 48.3141 125.525 47.0152C125.525 46.2163 125.768 45.617 126.254 45.2173C126.74 44.8179 127.381 44.618 128.179 44.618C129.025 44.618 129.698 44.8867 130.197 45.4234C130.695 45.9606 131.032 46.547 131.206 47.1838C131.38 47.8207 131.679 48.4078 132.103 48.9445C132.526 49.4817 133.075 49.7498 133.748 49.7498C135.093 49.7498 135.766 49.0634 135.766 47.6897C135.766 46.7905 135.423 46.079 134.738 45.5544C134.052 45.0301 133.224 44.6307 132.253 44.3558C131.281 44.0813 130.315 43.7692 129.356 43.4191C128.397 43.0698 127.574 42.4829 126.889 41.6587C126.204 40.8347 125.861 39.7483 125.861 38.3997C125.861 36.727 126.596 35.3595 128.067 34.298C129.536 33.2367 131.43 32.7058 133.748 32.7058C136.065 32.7058 137.952 33.143 139.41 34.0169C140.868 34.8914 141.596 35.9524 141.596 37.2011C141.596 37.8507 141.354 38.3938 140.868 38.8304C140.382 39.2676 139.79 39.4861 139.092 39.4861C138.27 39.4861 137.622 39.2237 137.149 38.6994C136.675 38.1748 136.358 37.5943 136.196 36.9575C136.033 36.3207 135.785 35.7401 135.448 35.2155C135.112 34.6912 134.657 34.429 134.084 34.429C133.536 34.429 133.106 34.6413 132.795 35.0658C132.483 35.4907 132.328 35.9899 132.328 36.5643C132.328 37.4884 132.657 38.2374 133.318 38.8116C133.978 39.3864 134.776 39.823 135.71 40.1229C136.644 40.4223 137.579 40.7473 138.513 41.0966C139.448 41.4467 140.244 42.0146 140.905 42.8011C141.565 43.5877 141.896 44.618 141.896 45.8916C141.896 47.4899 141.167 48.8077 139.709 49.8436C138.251 50.8801 136.264 51.398 133.748 51.398Z" fill="#F1A7A6"/>
<path d="M71.1042 18.2903C70.7059 15.1144 73.5099 10.2226 76.9423 7.64271C76.2807 6.52925 75.6217 5.50898 75.049 4.63603C74.3422 3.55838 73.5834 2.47495 72.4802 1.66615C70.9733 0.561434 68.9233 0.0672989 66.9241 0.0840759C61.2868 0.131445 56.3873 4.24707 55.4001 8.91378C54.4131 13.5805 56.8431 18.4526 60.8214 21.8109C64.4414 24.8665 69.9449 26.8688 74.7493 25.3578C77.451 24.508 79.0702 23.1809 79.9319 21.5821C76.1683 23.4973 71.7777 23.6597 71.1042 18.2903Z" fill="#F1A7A6"/>
<path d="M86.5924 10.4283C86.1335 8.43264 84.5679 6.73115 82.6203 6.11141C80.812 5.53593 78.7867 6.25647 76.9425 7.64273C79.4918 11.9327 82.0751 17.6049 79.9318 21.5821C82.0861 20.4858 84.0355 18.8173 84.9631 17.2783C86.205 15.2174 87.1318 12.7744 86.5924 10.4283Z" fill="#E5343C"/>
<path d="M76.9424 7.64278C73.5099 10.2227 70.7059 15.1144 71.1043 18.2904C71.7778 23.6598 76.1683 23.4973 79.9319 21.5821C82.075 17.605 79.4917 11.9328 76.9424 7.64278Z" fill="#D13842"/>
</svg>
