<svg width="142" height="37" viewBox="0 0 142 37" fill="none" xmlns="http://www.w3.org/2000/svg">
    <g clip-path="url(#clip0_53:9385)">
        <path
            d="M8.40648 28.7833C6.51245 28.7833 5.02394 28.1845 3.93999 26.9869C2.85617 25.7891 2.31434 24.0803 2.31434 21.8593V12.9891H0.893776C0.64452 12.9891 0.43901 12.9083 0.277106 12.7458C0.11478 12.584 0.0341797 12.3782 0.0341797 12.1283V11.3048C0.0341797 10.7311 0.32043 10.444 0.893776 10.444H1.60399C2.74997 10.444 3.73448 10.1015 4.55666 9.4148C5.37898 8.72882 5.91448 7.81184 6.16374 6.66385C6.28823 6.01549 6.6247 5.69081 7.17286 5.69081H8.0326C8.70539 5.69081 9.04186 6.01549 9.04186 6.66385V10.444H12.8914C13.1402 10.444 13.3457 10.5253 13.5081 10.6873C13.6698 10.8499 13.751 11.0556 13.751 11.3048V12.1283C13.751 12.3782 13.6698 12.584 13.5081 12.7458C13.3457 12.9083 13.1402 12.9891 12.8914 12.9891H9.04186V21.9717C9.04186 22.5955 9.20348 23.0885 9.52757 23.4501C9.85124 23.8118 10.2499 23.9927 10.7238 23.9927C11.7948 23.9927 12.6171 23.5314 13.1905 22.6079C13.3645 22.3834 13.5642 22.2523 13.7884 22.2148C14.0128 22.1776 14.2053 22.2214 14.3677 22.3459C14.5296 22.471 14.6107 22.6453 14.6107 22.8698C14.6107 24.4418 14.056 25.8207 12.9475 27.0056C11.8385 28.1908 10.3249 28.7833 8.40648 28.7833Z"
            fill="#010101" />
        <path
            d="M41.3609 10.0698C42.6317 10.0698 43.6224 10.5564 44.3323 11.5295C45.0425 12.5027 45.3975 13.9377 45.3975 15.8337C45.3975 19.8009 44.5128 22.9511 42.7439 25.2839C40.9744 27.6174 38.6823 28.7833 35.8669 28.7833C33.4245 28.7833 31.6681 27.8102 30.5969 25.864C29.2513 27.8102 27.2577 28.7833 24.6167 28.7833C23.7946 28.7833 23.0219 28.6645 22.2994 28.4277C21.5766 28.1908 20.8606 27.7915 20.1504 27.2302C19.4403 26.6686 18.8795 25.8265 18.4685 24.7039C18.0573 23.581 17.8518 22.2335 17.8518 20.6617V15.16C17.8518 14.5113 17.6024 13.8874 17.1043 13.2885C16.6055 12.6897 16.3567 12.2658 16.3567 12.016V11.8664C16.3567 11.667 16.4315 11.4798 16.581 11.3048C16.7307 11.1306 16.9296 11.0306 17.179 11.0056L22.748 10.2568C23.9439 10.1073 24.5419 10.4693 24.5419 11.3423L24.3925 23.3939C24.3675 24.2677 24.5169 24.9722 24.8411 25.5085C25.1646 26.0453 25.6008 26.3132 26.1493 26.3132C27.2203 26.3132 28.0488 25.5523 28.6347 24.0302C29.2197 22.5085 29.5131 20.8488 29.5131 19.0521V15.16C29.5131 14.5113 29.2637 13.8874 28.7653 13.2885C28.2668 12.6897 28.018 12.2658 28.018 12.016V11.8664C28.018 11.3674 28.3042 11.0803 28.8776 11.0056L33.9979 10.2194C35.1689 10.0202 35.7546 10.3943 35.7546 11.3423L35.6427 23.2442C35.5923 25.2903 36.1782 26.3132 37.3991 26.3132C38.6198 26.3132 39.7164 25.5085 40.6884 23.899C41.66 22.2897 42.146 20.6617 42.146 19.0149C42.146 18.3167 41.9526 17.6992 41.5664 17.1621C41.1799 16.6259 40.763 16.2078 40.3144 15.9083C39.8661 15.609 39.4485 15.1787 39.0623 14.6174C38.6758 14.0558 38.4831 13.4136 38.4831 12.6897C38.4831 11.9166 38.7447 11.2861 39.2678 10.7997C39.7913 10.313 40.4887 10.0698 41.3609 10.0698Z"
            fill="#010101" />
        <path
            d="M58.81 26.9494C60.4044 26.9494 61.2021 25.4148 61.2021 22.3459C61.2021 21.223 61.0462 19.8885 60.7349 18.3412C60.4232 16.7945 59.8997 15.3349 59.1652 13.9624C58.4299 12.5903 57.6141 11.9036 56.7169 11.9036C55.8447 11.9036 55.222 12.2908 54.8482 13.064C54.4745 13.8377 54.2877 15.0104 54.2877 16.582C54.2877 17.4055 54.3868 18.3787 54.5866 19.5013C54.7858 20.6242 55.0596 21.7535 55.4088 22.8885C55.7575 24.0244 56.2371 24.9845 56.848 25.7706C57.4581 26.5564 58.1122 26.9494 58.81 26.9494ZM58.0253 28.7833C55.1345 28.7833 52.6865 27.8915 50.6809 26.1074C48.6749 24.3236 47.6721 22.0839 47.6721 19.3892C47.6721 16.6945 48.6686 14.4675 50.6622 12.7086C52.6554 10.9494 55.0222 10.0698 57.7635 10.0698C60.6042 10.0698 63.0206 10.9558 65.0146 12.7271C67.0076 14.499 68.0047 16.7446 68.0047 19.4639C68.0047 22.1589 67.0327 24.3857 65.0891 26.1449C63.1457 27.9038 60.791 28.7833 58.0253 28.7833Z"
            fill="#010101" />
        <path
            d="M81.3047 26.9494C83.198 26.9494 84.1454 25.3773 84.1454 22.2335C84.1454 20.7363 84.0268 19.2396 83.7901 17.7424C83.5532 16.2454 83.1296 14.8978 82.5193 13.7002C81.9084 12.5027 81.1798 11.9036 80.333 11.9036C79.6602 11.9036 79.1183 12.1786 78.707 12.7271C78.2959 13.2763 78.0904 13.9874 78.0904 14.8603V21.6347C78.0904 23.1822 78.4139 24.4547 79.0622 25.4523C79.7097 26.4507 80.4575 26.9494 81.3047 26.9494ZM81.9026 10.0698C84.2199 10.0698 86.2693 10.8622 88.051 12.4465C89.8323 14.0312 90.7232 16.2582 90.7232 19.1272C90.7232 21.9967 89.8573 24.3236 88.1259 26.1074C86.3936 27.8915 84.3192 28.7833 81.9026 28.7833C80.3826 28.7833 79.1117 28.4215 78.0904 27.6978V32.2267C78.0904 32.85 78.3707 33.4675 78.9312 34.0792C79.4921 34.6904 79.7721 35.1459 79.7721 35.4454V35.5951C79.7721 36.0688 79.4734 36.306 78.8754 36.306H70.9515C70.3536 36.306 70.0548 36.0688 70.0548 35.5951V35.4454C70.0548 35.1459 70.3035 34.6904 70.8022 34.0792C71.3002 33.4675 71.5498 32.85 71.5498 32.2267V16.8816C71.5498 16.3079 71.2507 15.7651 70.6528 15.2533C70.0548 14.7424 69.7556 14.3241 69.7556 13.9996V13.8125C69.7556 13.4137 70.0419 13.0516 70.6154 12.7271L75.5487 10.2944C76.0966 10.0698 76.4957 10.0323 76.7449 10.1822C76.9937 10.3319 77.1187 10.619 77.1187 11.0428V12.1283C78.0904 10.7565 79.6848 10.0698 81.9026 10.0698Z"
            fill="black" />
        <path
            d="M92.709 28.4091C92.1355 28.4091 91.8494 28.1723 91.8494 27.6979V27.5483C91.8494 27.249 92.0923 26.794 92.5783 26.1822C93.064 25.5711 93.3069 24.9535 93.3069 24.3294V7.2255C93.3069 6.57685 93.064 5.94708 92.5783 5.33533C92.0923 4.72415 91.8494 4.29383 91.8494 4.04409V3.89422C91.8494 3.61997 92.1234 3.3329 92.6715 3.03358L98.3154 0.264042C98.8385 0.0393734 99.2556 0.0206394 99.5676 0.20784C99.8788 0.394897 100.035 0.675768 100.035 1.04988V24.3294C100.035 24.9535 100.309 25.5711 100.857 26.1822C101.405 26.794 101.679 27.249 101.679 27.5483V27.6979C101.679 28.1723 101.38 28.4091 100.782 28.4091H92.709Z"
            fill="black" />
        <path
            d="M121.905 24.2922C121.905 24.9656 121.986 25.4773 122.148 25.8265C122.31 26.1761 122.497 26.3694 122.709 26.4069C122.92 26.444 123.107 26.5377 123.269 26.6873C123.431 26.837 123.512 27.0745 123.512 27.3985C123.512 27.8728 123.195 28.1973 122.559 28.3715C121.924 28.5458 120.958 28.6337 119.663 28.6337C118.491 28.6337 117.638 28.4711 117.103 28.147C116.566 27.8232 116.249 27.2616 116.149 26.4628C115.152 28.0102 113.396 28.7833 110.879 28.7833C108.886 28.7833 107.222 28.1283 105.89 26.8184C104.556 25.5085 103.89 23.7061 103.89 21.4101V15.1598C103.89 14.5112 103.641 13.8873 103.143 13.2885C102.644 12.6897 102.395 12.2656 102.395 12.016V11.8664C102.395 11.3674 102.681 11.0803 103.255 11.0055L108.824 10.2568C109.995 10.1073 110.581 10.3568 110.581 11.0055L110.468 22.0838C110.443 23.581 110.624 24.6605 111.01 25.3214C111.396 25.9827 112.013 26.3132 112.86 26.3132C113.558 26.3132 114.143 25.9703 114.617 25.2839C115.09 24.598 115.327 23.6931 115.327 22.5705V15.1598C115.327 14.5112 115.078 13.8873 114.58 13.2885C114.081 12.6897 113.832 12.2656 113.832 12.016V11.8664C113.832 11.3674 114.118 11.0803 114.692 11.0055L120.261 10.2568C121.357 10.1073 121.905 10.3568 121.905 11.0055V24.2922Z"
            fill="black" />
        <path
            d="M133.748 28.7458C131.356 28.7458 129.387 28.3407 127.842 27.5295C126.297 26.7191 125.525 25.6646 125.525 24.3669C125.525 23.5686 125.768 22.9698 126.254 22.5705C126.74 22.1715 127.381 21.9717 128.179 21.9717C129.025 21.9717 129.698 22.2402 130.197 22.7764C130.695 23.3131 131.032 23.8991 131.206 24.5353C131.38 25.1716 131.679 25.7583 132.103 26.2945C132.527 26.8312 133.075 27.0991 133.748 27.0991C135.093 27.0991 135.766 26.4132 135.766 25.0407C135.766 24.1423 135.423 23.4314 134.738 22.9073C134.052 22.3835 133.224 21.9844 132.253 21.7097C131.281 21.4355 130.315 21.1236 129.356 20.7739C128.397 20.4248 127.574 19.8384 126.889 19.015C126.204 18.1917 125.861 17.1062 125.861 15.7588C125.861 14.0875 126.596 12.7212 128.067 11.6607C129.536 10.6003 131.43 10.0698 133.748 10.0698C136.065 10.0698 137.953 10.5066 139.41 11.3798C140.868 12.2535 141.597 13.3136 141.597 14.5612C141.597 15.2103 141.354 15.7529 140.868 16.1891C140.382 16.6259 139.79 16.8442 139.092 16.8442C138.27 16.8442 137.622 16.5821 137.149 16.0582C136.675 15.5341 136.358 14.9541 136.196 14.3178C136.033 13.6816 135.785 13.1015 135.448 12.5774C135.112 12.0535 134.657 11.7915 134.084 11.7915C133.536 11.7915 133.106 12.0037 132.795 12.4278C132.483 12.8523 132.328 13.3511 132.328 13.925C132.328 14.8483 132.657 15.5967 133.318 16.1704C133.978 16.7446 134.776 17.1809 135.71 17.4805C136.644 17.7797 137.579 18.1043 138.513 18.4534C139.448 18.8031 140.244 19.3705 140.905 20.1564C141.565 20.9423 141.896 21.9717 141.896 23.2442C141.896 24.8411 141.167 26.1577 139.709 27.1928C138.251 28.2283 136.264 28.7458 133.748 28.7458Z"
            fill="black" />
    </g>
    <defs>
        <clipPath id="clip0_53:9385">
            <rect width="142" height="36.3412" fill="white" />
        </clipPath>
    </defs>
</svg>
