<svg width="22" height="22" viewBox="0 0 22 22" fill="none" xmlns="http://www.w3.org/2000/svg">
<path d="M21.5 0.516679C20.85 -0.133321 19.8 -0.133321 19.15 0.516679L11 8.65001L2.84995 0.500012C2.19995 -0.149988 1.14995 -0.149988 0.499951 0.500012C-0.150049 1.15001 -0.150049 2.20001 0.499951 2.85001L8.64995 11L0.499951 19.15C-0.150049 19.8 -0.150049 20.85 0.499951 21.5C1.14995 22.15 2.19995 22.15 2.84995 21.5L11 13.35L19.15 21.5C19.8 22.15 20.85 22.15 21.5 21.5C22.15 20.85 22.15 19.8 21.5 19.15L13.35 11L21.5 2.85001C22.1333 2.21668 22.1333 1.15001 21.5 0.516679Z" fill="#323232"/>
</svg>
