<svg width="38" height="26" viewBox="0 0 38 26" fill="none" xmlns="http://www.w3.org/2000/svg">
<path d="M0.25 23.5C0.25 24.6046 1.14543 25.5 2.25 25.5H35.75C36.8546 25.5 37.75 24.6046 37.75 23.5V23.3333C37.75 22.2288 36.8546 21.3333 35.75 21.3333H2.25C1.14543 21.3333 0.25 22.2288 0.25 23.3333V23.5ZM0.25 13.0833C0.25 14.1879 1.14543 15.0833 2.25 15.0833H35.75C36.8546 15.0833 37.75 14.1879 37.75 13.0833V12.9167C37.75 11.8121 36.8546 10.9167 35.75 10.9167H2.25C1.14543 10.9167 0.25 11.8121 0.25 12.9167V13.0833ZM2.25 0.5C1.14543 0.5 0.25 1.39543 0.25 2.5V2.66667C0.25 3.77124 1.14543 4.66667 2.25 4.66667H35.75C36.8546 4.66667 37.75 3.77124 37.75 2.66667V2.5C37.75 1.39543 36.8546 0.5 35.75 0.5H2.25Z" fill="#323232"/>
</svg>
