<svg width="32" height="38" viewBox="0 0 32 38" fill="none" xmlns="http://www.w3.org/2000/svg">
<path d="M29.2634 21.9167C28.305 21.9167 27.5192 22.6258 27.385 23.565C26.465 30.0242 20.1592 34.7583 13.1634 33.0717C8.85088 32.0367 5.66921 28.7208 4.74921 24.3892C3.19671 16.9717 8.85088 10.4167 16 10.4167V15.7642C16 16.6267 17.035 17.0483 17.6292 16.435L24.8934 9.17083C25.2767 8.7875 25.2767 8.19333 24.8934 7.81L17.6292 0.545832C17.035 -0.0483352 16 0.373332 16 1.23583V6.58333C6.53171 6.58333 -0.943292 15.17 0.973375 24.9833C2.12338 30.9442 6.53171 35.525 12.4542 36.8475C21.7117 38.9175 29.9917 32.6308 31.18 24.0633C31.3525 22.9325 30.4134 21.9167 29.2634 21.9167ZM13.8917 27.6667V19.4825H13.7192L10.3267 20.69V22.0125L12.2625 21.4183V27.6667H13.8917ZM20.4467 19.5783C20.1017 19.4442 19.7375 19.3867 19.3159 19.3867C18.8942 19.3867 18.53 19.4442 18.185 19.5783C17.84 19.7125 17.5525 19.9233 17.3225 20.2108C17.0925 20.4983 16.8817 20.8625 16.7667 21.3033C16.6517 21.7442 16.575 22.2617 16.575 22.875V24.2933C16.575 24.9067 16.6517 25.4433 16.7859 25.865C16.92 26.2867 17.1117 26.67 17.3609 26.9575C17.61 27.245 17.8975 27.4558 18.2425 27.59C18.5875 27.7242 18.9517 27.7817 19.3734 27.7817C19.795 27.7817 20.1592 27.7242 20.5042 27.59C20.8492 27.4558 21.1367 27.245 21.3667 26.9575C21.5967 26.67 21.7884 26.3058 21.9225 25.865C22.0567 25.4242 22.1142 24.9067 22.1142 24.2933V22.875C22.1142 22.2617 22.0375 21.725 21.9034 21.3033C21.7692 20.8817 21.5775 20.4983 21.3284 20.2108C21.0792 19.9233 20.7725 19.7125 20.4467 19.5783ZM20.4659 24.5042C20.4659 24.8683 20.4467 25.175 20.3892 25.4242C20.3317 25.6733 20.2742 25.8842 20.1784 26.0375C20.0825 26.1908 19.9675 26.3058 19.8142 26.3633C19.6609 26.4208 19.5075 26.4592 19.335 26.4592C19.1625 26.4592 18.99 26.4208 18.8559 26.3633C18.7217 26.3058 18.5875 26.1908 18.4917 26.0375C18.3959 25.8842 18.3192 25.6733 18.2617 25.4242C18.2042 25.175 18.185 24.8683 18.185 24.5042V22.645C18.185 22.2808 18.2042 21.9742 18.2617 21.725C18.3192 21.4758 18.3767 21.2842 18.4917 21.1308C18.6067 20.9775 18.7025 20.8625 18.8559 20.805C19.0092 20.7475 19.1625 20.7092 19.335 20.7092C19.5075 20.7092 19.68 20.7475 19.8142 20.805C19.9484 20.8625 20.0825 20.9775 20.1784 21.1308C20.2742 21.2842 20.3509 21.4758 20.4084 21.725C20.4659 21.9742 20.485 22.2808 20.485 22.645V24.5042H20.4659Z" fill="#323232"/>
</svg>
