<svg width="34" height="34" viewBox="0 0 34 34" fill="none" xmlns="http://www.w3.org/2000/svg">
<path d="M3.66671 3.66665H15.3334V0.333313H3.66671C1.83337 0.333313 0.333374 1.83331 0.333374 3.66665V15.3333H3.66671V3.66665ZM13.6667 18.6666L7.00004 27H27L22 20.3333L18.6167 24.85L13.6667 18.6666ZM25.3334 11.1666C25.3334 9.78331 24.2167 8.66665 22.8334 8.66665C21.45 8.66665 20.3334 9.78331 20.3334 11.1666C20.3334 12.55 21.45 13.6666 22.8334 13.6666C24.2167 13.6666 25.3334 12.55 25.3334 11.1666ZM30.3334 0.333313H18.6667V3.66665H30.3334V15.3333H33.6667V3.66665C33.6667 1.83331 32.1667 0.333313 30.3334 0.333313ZM30.3334 30.3333H18.6667V33.6666H30.3334C32.1667 33.6666 33.6667 32.1666 33.6667 30.3333V18.6666H30.3334V30.3333ZM3.66671 18.6666H0.333374V30.3333C0.333374 32.1666 1.83337 33.6666 3.66671 33.6666H15.3334V30.3333H3.66671V18.6666Z" fill="#323232"/>
</svg>
