<svg width="34" height="34" viewBox="0 0 34 34" fill="none" xmlns="http://www.w3.org/2000/svg">
    <path
        d="M30.3334 0.333313H3.68337C1.85004 0.333313 0.350037 1.83331 0.350037 3.66665V33.6666L7.00004 27H30.3334C32.1667 27 33.6667 25.5 33.6667 23.6666V3.66665C33.6667 1.83331 32.1667 0.333313 30.3334 0.333313ZM18.6667 20.3333H15.3334V17H18.6667V20.3333ZM18.6667 12C18.6667 12.9166 17.9167 13.6666 17 13.6666C16.0834 13.6666 15.3334 12.9166 15.3334 12V8.66665C15.3334 7.74998 16.0834 6.99998 17 6.99998C17.9167 6.99998 18.6667 7.74998 18.6667 8.66665V12Z"
        fill="#323232" />
</svg>
