<svg width="46" height="46" viewBox="0 0 46 46" fill="none" xmlns="http://www.w3.org/2000/svg">
<rect x="3" y="3" width="40" height="40" rx="20" fill="#FEC76F" fill-opacity="0.85"/>
<path d="M20.7 30.475L29.6508 23.7667C30.1683 23.3833 30.1683 22.6167 29.6508 22.2333L20.7 15.525C20.0675 15.0458 19.1667 15.5058 19.1667 16.2917V29.7083C19.1667 30.4942 20.0675 30.9542 20.7 30.475ZM23 3.83333C12.42 3.83333 3.83333 12.42 3.83333 23C3.83333 33.58 12.42 42.1667 23 42.1667C33.58 42.1667 42.1667 33.58 42.1667 23C42.1667 12.42 33.58 3.83333 23 3.83333ZM23 38.3333C14.5475 38.3333 7.66667 31.4525 7.66667 23C7.66667 14.5475 14.5475 7.66667 23 7.66667C31.4525 7.66667 38.3333 14.5475 38.3333 23C38.3333 31.4525 31.4525 38.3333 23 38.3333Z" fill="#141414"/>
</svg>
