<svg width="40" height="40" viewBox="0 0 40 40" fill="none" xmlns="http://www.w3.org/2000/svg">
<path d="M17.7 27.475L26.6509 20.7667C27.1684 20.3833 27.1684 19.6167 26.6509 19.2333L17.7 12.525C17.0675 12.0458 16.1667 12.5058 16.1667 13.2917V26.7083C16.1667 27.4942 17.0675 27.9542 17.7 27.475ZM20 0.833332C9.42004 0.833332 0.833374 9.42 0.833374 20C0.833374 30.58 9.42004 39.1667 20 39.1667C30.58 39.1667 39.1667 30.58 39.1667 20C39.1667 9.42 30.58 0.833332 20 0.833332ZM20 35.3333C11.5475 35.3333 4.66671 28.4525 4.66671 20C4.66671 11.5475 11.5475 4.66667 20 4.66667C28.4525 4.66667 35.3334 11.5475 35.3334 20C35.3334 28.4525 28.4525 35.3333 20 35.3333Z" fill="#141414"/>
</svg>
