<svg width="34" height="34" viewBox="0 0 34 34" fill="none" xmlns="http://www.w3.org/2000/svg">
<path d="M12 15.3334H18.05L12 22.3334V25.3334H22V22H15.95L22 15V12H12V15.3334ZM25.895 0.0166931L33.5733 6.42503L31.44 8.98336L23.7567 2.57836L25.895 0.0166931ZM8.10501 0.0166931L10.2417 2.57669L2.56168 8.98336L0.428345 6.42336L8.10501 0.0166931ZM17 3.66669C8.71668 3.66669 2.00001 10.3834 2.00001 18.6667C2.00001 26.95 8.71668 33.6667 17 33.6667C25.2833 33.6667 32 26.95 32 18.6667C32 10.3834 25.2833 3.66669 17 3.66669ZM17 30.3334C10.5667 30.3334 5.33334 25.1 5.33334 18.6667C5.33334 12.2334 10.5667 7.00003 17 7.00003C23.4333 7.00003 28.6667 12.2334 28.6667 18.6667C28.6667 25.1 23.4333 30.3334 17 30.3334Z" fill="#323232"/>
</svg>
